<svg width="22" height="22" viewBox="0 0 22 22" fill="none" xmlns="http://www.w3.org/2000/svg">
<path d="M20.5861 10.8361L11.499 1.21903C11.4336 1.1496 11.3559 1.09451 11.2703 1.05693C11.1847 1.01935 11.093 1 11.0004 1C10.9078 1 10.8161 1.01935 10.7305 1.05693C10.645 1.09451 10.5673 1.1496 10.5018 1.21903L1.41475 10.8361C1.15002 11.1165 1 11.4974 1 11.8946C1 12.7194 1.63316 13.39 2.41193 13.39H3.36939V20.2523C3.36939 20.6659 3.68487 21 4.07535 21H9.58849V15.7662H12.0594V21H17.9255C18.316 21 18.6314 20.6659 18.6314 20.2523V13.39H19.5889C19.9639 13.39 20.3235 13.2334 20.5883 12.9507C21.1376 12.3666 21.1376 11.4203 20.5861 10.8361Z" fill="#49B0AB" stroke="#253646" stroke-width="0.5"/>
</svg>
