<svg xmlns="http://www.w3.org/2000/svg" width="20.717" height="19.619" viewBox="0 0 20.717 19.619">
  <g id="Group_3641" data-name="Group 3641" transform="translate(-2770.161 -453.46)">
    <path id="Path_2137" data-name="Path 2137" d="M2770.161,464v-1.424c.058-.389.114-.779.176-1.168a1.292,1.292,0,0,1,1.15-1.113,2.68,2.68,0,0,0,2.237-3.664,1.282,1.282,0,0,1,.439-1.536,10.213,10.213,0,0,1,2.732-1.534,1.279,1.279,0,0,1,1.513.4,2.693,2.693,0,0,0,4.224,0,1.275,1.275,0,0,1,1.512-.4,10.184,10.184,0,0,1,2.916,1.684,1.273,1.273,0,0,1,.438,1.538,2.691,2.691,0,0,0,2.121,3.6,1.269,1.269,0,0,1,1.1,1.088,9.5,9.5,0,0,1,.021,3.387,1.328,1.328,0,0,1-1.044,1.2c-.139.034-.284.043-.423.079a2.689,2.689,0,0,0-1.841,3.577,1.278,1.278,0,0,1-.437,1.608,10.349,10.349,0,0,1-2.6,1.548,1.276,1.276,0,0,1-1.578-.411,2.683,2.683,0,0,0-4.335.053,1.284,1.284,0,0,1-1.6.459,10.3,10.3,0,0,1-2.775-1.589,1.27,1.27,0,0,1-.448-1.706,2.683,2.683,0,0,0-2.159-3.7,1.288,1.288,0,0,1-1.211-1.17C2770.234,464.539,2770.2,464.269,2770.161,464Zm13.813-.726a3.453,3.453,0,1,0-3.494,3.444A3.47,3.47,0,0,0,2783.974,463.274Z" transform="translate(0 0)" fill="#D95182"/>
  </g>
</svg>